<svg width="1200" height="900" viewBox="0 0 1200 900" fill="none" xmlns="http://www.w3.org/2000/svg">
  <defs>
    <linearGradient id="bgA" x1="0" y1="0" x2="1" y2="1">
      <stop offset="0" stop-color="#0B0A13"/>
      <stop offset="1" stop-color="#161329"/>
    </linearGradient>
    <linearGradient id="lineA" x1="0" y1="0" x2="1200" y2="0">
      <stop offset="0" stop-color="#3E64FF" stop-opacity="0.25"/>
      <stop offset="0.5" stop-color="#7A2CFF" stop-opacity="0.85"/>
      <stop offset="1" stop-color="#23D4FF" stop-opacity="0.35"/>
    </linearGradient>
    <radialGradient id="haloA" cx="0" cy="0" r="1" gradientUnits="userSpaceOnUse" gradientTransform="translate(760 430) rotate(90) scale(420 500)">
      <stop offset="0" stop-color="#7A2CFF" stop-opacity="0.5"/>
      <stop offset="1" stop-color="#7A2CFF" stop-opacity="0"/>
    </radialGradient>
    <filter id="blurA" x="-100" y="-100" width="1400" height="1100" filterUnits="userSpaceOnUse">
      <feGaussianBlur stdDeviation="16"/>
    </filter>
  </defs>

  <rect width="1200" height="900" fill="url(#bgA)"/>
  <ellipse cx="760" cy="430" rx="500" ry="420" fill="url(#haloA)"/>

  <g filter="url(#blurA)" opacity="0.85">
    <path d="M-10 430C90 430 120 320 210 320C300 320 330 560 430 560C530 560 560 260 660 260C760 260 790 640 900 640C1010 640 1040 390 1210 390" stroke="url(#lineA)" stroke-width="16" stroke-linecap="round"/>
    <path d="M-20 520C80 520 120 430 210 430C300 430 330 620 430 620C530 620 560 330 660 330C760 330 790 700 900 700C1010 700 1040 470 1220 470" stroke="#4A71FF" stroke-opacity="0.35" stroke-width="7" stroke-linecap="round"/>
    <path d="M-20 340C80 340 120 250 210 250C300 250 330 500 430 500C530 500 560 180 660 180C760 180 790 560 900 560C1010 560 1040 300 1220 300" stroke="#8A4BFF" stroke-opacity="0.3" stroke-width="7" stroke-linecap="round"/>
  </g>

  <g opacity="0.42">
    <circle cx="210" cy="320" r="11" fill="#7A2CFF"/>
    <circle cx="430" cy="560" r="13" fill="#3E64FF"/>
    <circle cx="660" cy="260" r="11" fill="#22D4FF"/>
    <circle cx="900" cy="640" r="13" fill="#7A2CFF"/>
    <circle cx="1000" cy="470" r="10" fill="#3E64FF"/>
  </g>
</svg>
