<svg width="256" height="256" viewBox="0 0 256 256" fill="none" xmlns="http://www.w3.org/2000/svg">
  <path
    d="M66 206V92C66 53.3 97.3 22 136 22H154C194.9 22 228 55.1 228 96C228 136.9 194.9 170 154 170H103V206H66ZM103 132H151C171.4 132 188 115.4 188 95C188 74.6 171.4 58 151 58H103V132Z"
    fill="url(#logoGradient)"
  />
  <path d="M119 82L146 41H153C183.4 41 208 65.6 208 96C208 126.4 183.4 151 153 151H132L158 112H153C162.4 112 170 104.4 170 95C170 85.6 162.4 78 153 78H132L119 82Z" fill="black" fill-opacity="0.9"/>
  <circle cx="84" cy="216" r="11" fill="url(#logoGradient)"/>
  <circle cx="84" cy="241" r="7" fill="url(#logoGradient)"/>
  <defs>
    <linearGradient id="logoGradient" x1="70" y1="22" x2="210" y2="238" gradientUnits="userSpaceOnUse">
      <stop stop-color="#7D2DFF"/>
      <stop offset="1" stop-color="#9100D6"/>
    </linearGradient>
  </defs>
</svg>
