<svg width="1200" height="900" viewBox="0 0 1200 900" fill="none" xmlns="http://www.w3.org/2000/svg">
  <defs>
    <linearGradient id="bgB" x1="0" y1="0" x2="1" y2="1">
      <stop offset="0" stop-color="#0A0B12"/>
      <stop offset="1" stop-color="#131826"/>
    </linearGradient>
    <radialGradient id="beamB" cx="0" cy="0" r="1" gradientUnits="userSpaceOnUse" gradientTransform="translate(640 340) rotate(90) scale(380 520)">
      <stop offset="0" stop-color="#6D44FF" stop-opacity="0.5"/>
      <stop offset="1" stop-color="#6D44FF" stop-opacity="0"/>
    </radialGradient>
    <linearGradient id="rimB" x1="260" y1="680" x2="940" y2="680">
      <stop offset="0" stop-color="#2DD4FF" stop-opacity="0.2"/>
      <stop offset="0.5" stop-color="#7A2CFF" stop-opacity="0.9"/>
      <stop offset="1" stop-color="#2DD4FF" stop-opacity="0.2"/>
    </linearGradient>
    <filter id="blurB" x="180" y="120" width="840" height="640" filterUnits="userSpaceOnUse">
      <feGaussianBlur stdDeviation="14"/>
    </filter>
  </defs>

  <rect width="1200" height="900" fill="url(#bgB)"/>
  <ellipse cx="640" cy="340" rx="520" ry="380" fill="url(#beamB)"/>

  <g filter="url(#blurB)">
    <path d="M280 690L420 560H860L1000 690H280Z" stroke="#2ED4FF" stroke-opacity="0.35" stroke-width="8"/>
    <path d="M360 620L470 520H810L920 620H360Z" stroke="#7A2CFF" stroke-opacity="0.55" stroke-width="6"/>
    <path d="M430 560L520 490H760L850 560H430Z" stroke="#5C6CFF" stroke-opacity="0.65" stroke-width="5"/>
  </g>

  <ellipse cx="640" cy="700" rx="390" ry="32" fill="url(#rimB)" opacity="0.75"/>
  <ellipse cx="640" cy="700" rx="330" ry="16" fill="#7A2CFF" opacity="0.35"/>

  <g opacity="0.4">
    <circle cx="420" cy="400" r="6" fill="#2DD4FF"/>
    <circle cx="500" cy="350" r="7" fill="#7A2CFF"/>
    <circle cx="780" cy="360" r="7" fill="#5B6CFF"/>
    <circle cx="860" cy="420" r="6" fill="#2DD4FF"/>
  </g>
</svg>
